HIERARCHY
ROOT Hips
{
	OFFSET 0.000000 0.000000 0.000000
	CHANNELS 6 Xposition Yposition Zposition Zrotation Yrotation Xrotation 
	JOINT LHipJoint
	{
		OFFSET 0.000000 0.000000 0.000000
		CHANNELS 3 Zrotation Yrotation Xrotation
		JOINT LeftUpLeg
		{
			OFFSET 1.363060 -1.794630 0.839290
			CHANNELS 3 Zrotation Yrotation Xrotation
			JOINT LeftLeg
			{
				OFFSET 2.448110 -6.726130 0.000000
				CHANNELS 3 Zrotation Yrotation Xrotation
				JOINT LeftFoot
				{
					OFFSET 2.562200 -7.039590 0.000000
					CHANNELS 3 Zrotation Yrotation Xrotation
					JOINT LeftToeBase
					{
						OFFSET 0.157640 -0.433110 2.322550
						CHANNELS 3 Zrotation Yrotation Xrotation
						End Site
						{
							OFFSET 0.000000 0.000000 0.000000
						}
					}
				}
			}
		}
	}
	JOINT RHipJoint
	{
		OFFSET 0.000000 0.000000 0.000000
		CHANNELS 3 Zrotation Yrotation Xrotation
		JOINT RightUpLeg
		{
			OFFSET -1.305520 -1.794630 0.839290
			CHANNELS 3 Zrotation Yrotation Xrotation
			JOINT RightLeg
			{
				OFFSET -2.542530 -6.985550 0.000000
				CHANNELS 3 Zrotation Yrotation Xrotation
				JOINT RightFoot
				{
					OFFSET -2.568260 -7.056230 0.000000
					CHANNELS 3 Zrotation Yrotation Xrotation
					JOINT RightToeBase
					{
						OFFSET -0.164730 -0.452590 2.363150
						CHANNELS 3 Zrotation Yrotation Xrotation
						End Site
						{
							OFFSET 0.000000 0.000000 0.000000
						}
					}
				}
			}
		}
	}
}
MOTION
Frames: 19
Frame Time: 0.008333
3.450844 16.548551 1.244634 -138.781242 -87.319523 162.337919 -11.929592 2.422128 -2.816304 -5.150639 5.156494 -4.692929 -0.787752 1.667550 29.380303 0.113584 -4.102116 9.015770 -1.069700 0.000000 -82.960500 7.349877 -0.052420 1.943892 8.529518 11.274860 -50.212838 2.010043 -1.978046 29.141107 -0.671012 -2.191591 -0.791478 -0.828500 0.000000 -22.597300
3.272092 16.547920 1.229608 -129.086351 -87.461803 152.496443 -12.195697 2.329185 -2.888992 -4.380382 5.369863 -5.423951 -0.570673 1.810138 31.631041 0.201858 -4.289215 10.587782 -1.289400 -0.000000 -81.444000 7.159262 -0.146610 1.766277 9.044009 11.416670 -49.889832 1.960586 -2.105333 30.895064 -0.831760 -2.697939 -2.300892 -0.796500 -0.000000 -22.014700
3.096374 16.552374 1.212467 -119.229886 -87.551427 142.488758 -12.456074 2.229297 -2.952209 -3.671327 5.543901 -6.263992 -0.367056 1.949767 33.977403 0.314533 -4.227275 12.046012 -1.445500 -0.000000 -78.942100 6.975101 -0.232100 1.576728 9.601071 11.434556 -49.362551 1.944474 -2.184599 32.227654 -0.990620 -3.183396 -3.809417 -0.735900 0.000000 -21.907500
2.923269 16.561341 1.192876 -109.410375 -87.597367 132.524596 -12.694905 2.126519 -3.001126 -3.047066 5.658667 -7.213810 -0.181141 2.087058 36.398183 0.448450 -3.841474 13.312074 -1.487600 0.000000 -75.581600 6.809628 -0.304804 1.383087 10.171504 11.333270 -48.670515 1.955255 -2.222699 33.169954 -1.142739 -3.629888 -5.254998 -0.650800 0.000000 -22.139200
2.752506 16.574300 1.170910 -99.741054 -87.608153 122.723778 -12.903160 2.022929 -3.033549 -2.523574 5.705500 -8.272045 -0.014103 2.223033 38.868741 0.600285 -3.082756 14.325430 -1.374300 0.000000 -71.568699 6.669749 -0.363830 1.192179 10.728546 11.124514 -47.853991 1.985817 -2.226597 33.764370 -1.282793 -4.022648 -6.580567 -0.549300 0.000000 -22.553900
2.583789 16.590831 1.146791 -90.362719 -87.588978 113.232899 -13.075770 1.919726 -3.049450 -2.111995 5.684157 -9.433317 0.134921 2.358458 41.358866 0.767874 -1.932368 15.047662 -1.082700 0.000000 -67.158600 6.559851 -0.409258 1.009735 11.248316 10.826718 -46.953528 2.028864 -2.203287 34.062981 -1.405743 -4.351099 -7.741817 -0.441700 -0.000000 -22.995700
2.416885 16.610709 1.121152 -81.442689 -87.538057 104.224095 -13.212936 1.815680 -3.050448 -1.808802 5.604703 -10.691436 0.268362 2.493166 43.836844 0.950071 -0.412063 15.462417 -0.616500 -0.000000 -62.617100 6.479423 -0.444116 0.841980 11.718280 10.469829 -46.003276 2.078187 -2.158918 34.116166 -1.508982 -4.616692 -8.707896 -0.339100 0.000000 -23.338600
2.251583 16.633786 1.094603 -73.246112 -87.457494 95.967135 -13.314685 1.709198 -3.039465 -1.612035 5.477979 -12.034705 0.388991 2.625713 46.267758 1.146146 1.425145 15.572436 -0.003100 -0.000000 -58.171400 6.428009 -0.470852 0.693721 12.126840 10.084429 -45.034910 2.128287 -2.099804 33.977828 -1.591349 -4.823976 -9.467792 -0.249600 0.000000 -23.501500
2.086361 16.660937 1.077400 -55.501819 -86.999531 78.301414 -13.591501 1.616839 -2.756792 -1.065653 4.574887 -13.886858 0.498160 2.810464 48.948249 1.360559 3.386190 15.303374 0.654399 0.000000 -53.956400 6.238838 -0.519623 0.432817 12.980871 9.031533 -44.084121 2.250351 -1.984283 33.504312 -1.664237 -5.018565 -10.026837 -0.183900 0.000000 -23.341500
1.924273 16.690317 1.051033 -50.740914 -86.818853 73.540425 -13.615991 1.498981 -2.734236 -1.051768 4.393420 -15.352228 0.601319 2.933123 51.175217 1.576886 5.590750 14.881644 1.407000 -0.000000 -50.134700 6.243847 -0.536718 0.332493 13.259853 8.679698 -43.146797 2.292333 -1.911627 33.117729 -1.710289 -5.143046 -10.405082 -0.131800 -0.000000 -23.111100
1.763861 16.723101 1.025600 -46.898472 -86.657570 69.725212 -13.620599 1.369624 -2.714438 -1.116398 4.214398 -16.855543 0.697288 3.046135 53.261405 1.796145 7.811987 14.238858 2.138000 0.000000 -46.718800 6.259413 -0.556718 0.256733 13.472662 8.382225 -42.236489 2.327223 -1.836628 32.657850 -1.743473 -5.248037 -10.633434 -0.098600 0.000000 -22.748400
1.605201 16.759339 1.001407 -43.938752 -86.528224 66.816736 -13.609544 1.228818 -2.701564 -1.247672 4.052435 -18.379576 0.785288 3.148478 55.181605 2.010614 9.941386 13.417931 2.792300 -0.000000 -43.717000 6.280487 -0.580648 0.203461 13.625936 8.152767 -41.351489 2.355102 -1.760681 32.144216 -1.767746 -5.344228 -10.745812 -0.081100 -0.000000 -22.325500
1.448425 16.798999 0.978632 -41.789633 -86.442414 64.736546 -13.585552 1.077946 -2.699050 -1.436109 3.917874 -19.906425 0.863983 3.239664 56.913600 2.211580 11.884747 12.464652 3.328300 0.000000 -41.108500 6.303747 -0.608114 0.168424 13.726858 7.993809 -40.484403 2.377064 -1.684245 31.586097 -1.786067 -5.437291 -10.773797 -0.075500 0.000000 -21.920600
1.293571 16.841934 0.957225 -40.361032 -86.405548 63.387911 -13.549739 0.919412 -2.707882 -1.671950 3.815026 -21.419992 0.932103 3.319021 58.439618 2.390769 13.570235 11.425921 3.722200 -0.000000 -38.892001 6.327904 -0.638614 0.147090 13.784080 7.898220 -39.624295 2.394941 -1.607176 30.984553 -1.800281 -5.529097 -10.742252 -0.078800 0.000000 -21.607600
1.140615 16.887814 0.936939 -39.541692 -86.422139 62.652364 -13.501340 0.756859 -2.728323 -1.950653 3.742180 -22.902102 0.987971 3.386056 59.743815 2.541227 14.951714 10.342677 3.967500 -0.000000 -37.026000 6.354505 -0.670168 0.132700 13.802677 7.847936 -38.757738 2.410549 -1.529323 30.337293 -1.809939 -5.613434 -10.667005 -0.088500 -0.000000 -21.453000
0.989418 16.936198 0.917502 -39.218589 -86.490309 62.410253 -13.439305 0.593982 -2.758078 -2.267212 3.692028 -24.338867 1.030141 3.440045 60.814927 2.658432 16.009536 9.250372 4.072600 0.000000 -35.482400 6.385926 -0.701268 0.119382 13.788448 7.820510 -37.873384 2.425609 -1.450487 29.639069 -1.813465 -5.682277 -10.552019 -0.103700 -0.000000 -21.508300
0.839816 16.986515 0.898591 -39.274856 -86.605127 62.536902 -13.361890 0.434771 -2.793491 -2.617919 3.653198 -25.716341 1.057257 3.480155 61.643917 2.740613 16.748726 8.175989 4.057000 0.000001 -34.213700 6.425993 -0.730227 0.101260 13.745299 7.789220 -36.961232 2.441492 -1.370887 28.886063 -1.807840 -5.723328 -10.393100 -0.124700 -0.000000 -21.796400
0.691567 17.038019 0.879935 -39.589399 -86.760585 62.909895 -13.268771 0.282246 -2.829192 -2.998814 3.610089 -27.030211 1.068263 3.505928 62.227972 2.789020 17.195991 7.137840 3.946200 0.000001 -33.190700 6.477053 -0.755699 0.075015 13.675213 7.734547 -36.019935 2.458367 -1.290595 28.076837 -1.790584 -5.728760 -10.177717 -0.152600 -0.000000 -22.336300
0.544179 17.090010 0.861317 -40.039208 -86.949901 63.404374 -13.159107 0.139752 -2.859845 -3.407080 3.548288 -28.272211 1.062318 3.516712 62.564147 2.807353 17.394057 6.146426 3.767600 0.000000 -32.366900 6.542610 -0.776693 0.037133 13.579268 7.634488 -35.048204 2.476303 -1.210526 27.215910 -1.758288 -5.686121 -9.893383 -0.188400 -0.000000 -23.111000
